# xmcd
#
# Track frame offsets:
# 150
# 20685
# 29570
# 40879
# 56103
# 65412
# 74014
# 89594
# 105643
# 119204
# 136080
# 142231
# 153543
# 173936
# 182812
# 196621
#
# Disc length: 2814 seconds
#
# Revision: 0
# Processed by: cddbd v1.5.1PL2 Copyright (c) Steve Scherf et al.
# Submitted via: Audion 3.0.2 (http://www.panic.com/audion/)
#
DISCID=f90afc10
DTITLE=Jan Johansson - Jazz på svenska
DYEAR=1900
DGENRE=
TTITLE0=Visa från Utanmyra
TTITLE1=Gånglek från Älvdalen
TTITLE2=Polska från Medelpad
TTITLE3=Visa från Rättvik
TTITLE4=Brudmarsch efter Larshöga Jonke
TTITLE5=Vallåt från Jämtland
TTITLE6=Emigrantvisa
TTITLE7=Berg-Kristis polska
TTITLE8=Leksands skänklåt
TTITLE9=Gammal bröllopsmarsch
TTITLE10=Visa från Järna
TTITLE11=Polska efter Höök Olle
TTITLE12=Visa från Utanmyra (bonus track)
TTITLE13=Gånglek från Älvdalen (bonus track)
TTITLE14=Leksands skänklåt (bonus track)
TTITLE15=Emigrantvisa (bonus track)
EXTD=
EXTT0=
EXTT1=
EXTT2=
EXTT3=
EXTT4=
EXTT5=
EXTT6=
EXTT7=
EXTT8=
EXTT9=
EXTT10=
EXTT11=
EXTT12=
EXTT13=
EXTT14=
EXTT15=
PLAYORDER=
